<svg width="1440" height="213" viewBox="0 0 1440 213" fill="none" xmlns="http://www.w3.org/2000/svg">
<rect width="1440" height="213" fill="#6278F7"/>
<path d="M1008.15 114V100H1014.05C1015.55 100 1016.86 100.293 1017.99 100.88C1019.14 101.467 1020.03 102.287 1020.65 103.34C1021.29 104.393 1021.61 105.613 1021.61 107C1021.61 108.387 1021.29 109.607 1020.65 110.66C1020.03 111.713 1019.14 112.533 1017.99 113.12C1016.86 113.707 1015.55 114 1014.05 114H1008.15ZM1010.15 112.26H1013.93C1015.09 112.26 1016.09 112.04 1016.93 111.6C1017.79 111.16 1018.45 110.547 1018.91 109.76C1019.38 108.96 1019.61 108.04 1019.61 107C1019.61 105.947 1019.38 105.027 1018.91 104.24C1018.45 103.453 1017.79 102.84 1016.93 102.4C1016.09 101.96 1015.09 101.74 1013.93 101.74H1010.15V112.26ZM1029.12 114.12C1027.98 114.12 1026.98 113.887 1026.12 113.42C1025.26 112.953 1024.6 112.313 1024.12 111.5C1023.65 110.687 1023.42 109.753 1023.42 108.7C1023.42 107.647 1023.64 106.713 1024.1 105.9C1024.56 105.087 1025.2 104.453 1026 104C1026.81 103.533 1027.72 103.3 1028.74 103.3C1029.76 103.3 1030.67 103.527 1031.46 103.98C1032.24 104.433 1032.86 105.073 1033.3 105.9C1033.75 106.713 1033.98 107.667 1033.98 108.76C1033.98 108.84 1033.97 108.933 1033.96 109.04C1033.96 109.147 1033.95 109.247 1033.94 109.34H1024.92V107.96H1032.94L1032.16 108.44C1032.17 107.76 1032.03 107.153 1031.74 106.62C1031.44 106.087 1031.04 105.673 1030.52 105.38C1030.01 105.073 1029.42 104.92 1028.74 104.92C1028.07 104.92 1027.48 105.073 1026.96 105.38C1026.44 105.673 1026.03 106.093 1025.74 106.64C1025.44 107.173 1025.3 107.787 1025.3 108.48V108.8C1025.3 109.507 1025.46 110.14 1025.78 110.7C1026.11 111.247 1026.57 111.673 1027.16 111.98C1027.74 112.287 1028.42 112.44 1029.18 112.44C1029.8 112.44 1030.37 112.333 1030.88 112.12C1031.4 111.907 1031.85 111.587 1032.24 111.16L1033.3 112.4C1032.82 112.96 1032.22 113.387 1031.5 113.68C1030.79 113.973 1030 114.12 1029.12 114.12ZM1039.68 114.12C1038.8 114.12 1037.96 114 1037.16 113.76C1036.38 113.52 1035.76 113.227 1035.3 112.88L1036.1 111.36C1036.56 111.667 1037.12 111.927 1037.78 112.14C1038.45 112.353 1039.13 112.46 1039.82 112.46C1040.72 112.46 1041.36 112.333 1041.74 112.08C1042.14 111.827 1042.34 111.473 1042.34 111.02C1042.34 110.687 1042.22 110.427 1041.98 110.24C1041.74 110.053 1041.42 109.913 1041.02 109.82C1040.64 109.727 1040.2 109.647 1039.72 109.58C1039.24 109.5 1038.76 109.407 1038.28 109.3C1037.8 109.18 1037.36 109.02 1036.96 108.82C1036.56 108.607 1036.24 108.32 1036 107.96C1035.76 107.587 1035.64 107.093 1035.64 106.48C1035.64 105.84 1035.82 105.28 1036.18 104.8C1036.54 104.32 1037.05 103.953 1037.7 103.7C1038.37 103.433 1039.16 103.3 1040.06 103.3C1040.76 103.3 1041.46 103.387 1042.16 103.56C1042.88 103.72 1043.47 103.953 1043.92 104.26L1043.1 105.78C1042.62 105.46 1042.12 105.24 1041.6 105.12C1041.08 105 1040.56 104.94 1040.04 104.94C1039.2 104.94 1038.58 105.08 1038.16 105.36C1037.75 105.627 1037.54 105.973 1037.54 106.4C1037.54 106.76 1037.66 107.04 1037.9 107.24C1038.16 107.427 1038.48 107.573 1038.86 107.68C1039.26 107.787 1039.7 107.88 1040.18 107.96C1040.66 108.027 1041.14 108.12 1041.62 108.24C1042.1 108.347 1042.54 108.5 1042.92 108.7C1043.32 108.9 1043.64 109.18 1043.88 109.54C1044.14 109.9 1044.26 110.38 1044.26 110.98C1044.26 111.62 1044.08 112.173 1043.7 112.64C1043.33 113.107 1042.8 113.473 1042.12 113.74C1041.44 113.993 1040.63 114.12 1039.68 114.12ZM1051.38 114.12C1050.25 114.12 1049.25 113.887 1048.38 113.42C1047.53 112.953 1046.86 112.313 1046.38 111.5C1045.92 110.687 1045.68 109.753 1045.68 108.7C1045.68 107.647 1045.91 106.713 1046.36 105.9C1046.83 105.087 1047.46 104.453 1048.26 104C1049.08 103.533 1049.99 103.3 1051 103.3C1052.03 103.3 1052.94 103.527 1053.72 103.98C1054.51 104.433 1055.12 105.073 1055.56 105.9C1056.02 106.713 1056.24 107.667 1056.24 108.76C1056.24 108.84 1056.24 108.933 1056.22 109.04C1056.22 109.147 1056.22 109.247 1056.2 109.34H1047.18V107.96H1055.2L1054.42 108.44C1054.44 107.76 1054.3 107.153 1054 106.62C1053.71 106.087 1053.3 105.673 1052.78 105.38C1052.28 105.073 1051.68 104.92 1051 104.92C1050.34 104.92 1049.74 105.073 1049.22 105.38C1048.7 105.673 1048.3 106.093 1048 106.64C1047.71 107.173 1047.56 107.787 1047.56 108.48V108.8C1047.56 109.507 1047.72 110.14 1048.04 110.7C1048.38 111.247 1048.84 111.673 1049.42 111.98C1050.01 112.287 1050.68 112.44 1051.44 112.44C1052.07 112.44 1052.64 112.333 1053.14 112.12C1053.66 111.907 1054.12 111.587 1054.5 111.16L1055.56 112.4C1055.08 112.96 1054.48 113.387 1053.76 113.68C1053.06 113.973 1052.26 114.12 1051.38 114.12ZM1064.57 103.3C1065.44 103.3 1066.2 103.467 1066.85 103.8C1067.52 104.133 1068.04 104.64 1068.41 105.32C1068.78 106 1068.97 106.86 1068.97 107.9V114H1067.05V108.12C1067.05 107.093 1066.8 106.32 1066.29 105.8C1065.8 105.28 1065.1 105.02 1064.19 105.02C1063.51 105.02 1062.92 105.153 1062.41 105.42C1061.9 105.687 1061.51 106.08 1061.23 106.6C1060.96 107.12 1060.83 107.767 1060.83 108.54V114H1058.91V103.4H1060.75V106.26L1060.45 105.5C1060.8 104.807 1061.33 104.267 1062.05 103.88C1062.77 103.493 1063.61 103.3 1064.57 103.3ZM1075.11 114L1070.47 103.4H1072.47L1076.59 113H1075.63L1079.83 103.4H1081.71L1077.07 114H1075.11ZM1087.75 114.12C1086.68 114.12 1085.73 113.887 1084.91 113.42C1084.08 112.953 1083.43 112.313 1082.95 111.5C1082.47 110.673 1082.23 109.74 1082.23 108.7C1082.23 107.647 1082.47 106.713 1082.95 105.9C1083.43 105.087 1084.08 104.453 1084.91 104C1085.73 103.533 1086.68 103.3 1087.75 103.3C1088.8 103.3 1089.74 103.533 1090.57 104C1091.41 104.453 1092.06 105.087 1092.53 105.9C1093.01 106.7 1093.25 107.633 1093.25 108.7C1093.25 109.753 1093.01 110.687 1092.53 111.5C1092.06 112.313 1091.41 112.953 1090.57 113.42C1089.74 113.887 1088.8 114.12 1087.75 114.12ZM1087.75 112.44C1088.43 112.44 1089.03 112.287 1089.57 111.98C1090.11 111.673 1090.54 111.24 1090.85 110.68C1091.15 110.107 1091.31 109.447 1091.31 108.7C1091.31 107.94 1091.15 107.287 1090.85 106.74C1090.54 106.18 1090.11 105.747 1089.57 105.44C1089.03 105.133 1088.43 104.98 1087.75 104.98C1087.07 104.98 1086.46 105.133 1085.93 105.44C1085.39 105.747 1084.97 106.18 1084.65 106.74C1084.33 107.287 1084.17 107.94 1084.17 108.7C1084.17 109.447 1084.33 110.107 1084.65 110.68C1084.97 111.24 1085.39 111.673 1085.93 111.98C1086.46 112.287 1087.07 112.44 1087.75 112.44ZM1095.9 114V99.16H1097.82V114H1095.9ZM1104.27 114L1099.63 103.4H1101.63L1105.75 113H1104.79L1108.99 103.4H1110.87L1106.23 114H1104.27ZM1112.66 114V103.4H1114.58V114H1112.66ZM1113.62 101.36C1113.25 101.36 1112.93 101.24 1112.68 101C1112.44 100.76 1112.32 100.467 1112.32 100.12C1112.32 99.76 1112.44 99.46 1112.68 99.22C1112.93 98.98 1113.25 98.86 1113.62 98.86C1113.99 98.86 1114.3 98.98 1114.54 99.22C1114.79 99.4467 1114.92 99.7333 1114.92 100.08C1114.92 100.44 1114.8 100.747 1114.56 101C1114.32 101.24 1114.01 101.36 1113.62 101.36ZM1122.63 114.12C1121.6 114.12 1120.68 113.893 1119.87 113.44C1119.07 112.987 1118.43 112.353 1117.97 111.54C1117.5 110.727 1117.27 109.78 1117.27 108.7C1117.27 107.62 1117.5 106.68 1117.97 105.88C1118.43 105.067 1119.07 104.433 1119.87 103.98C1120.68 103.527 1121.6 103.3 1122.63 103.3C1123.52 103.3 1124.33 103.5 1125.05 103.9C1125.77 104.3 1126.34 104.9 1126.77 105.7C1127.21 106.5 1127.43 107.5 1127.43 108.7C1127.43 109.9 1127.21 110.9 1126.79 111.7C1126.37 112.5 1125.81 113.107 1125.09 113.52C1124.37 113.92 1123.55 114.12 1122.63 114.12ZM1122.79 112.44C1123.45 112.44 1124.05 112.287 1124.59 111.98C1125.13 111.673 1125.56 111.24 1125.87 110.68C1126.19 110.107 1126.35 109.447 1126.35 108.7C1126.35 107.94 1126.19 107.287 1125.87 106.74C1125.56 106.18 1125.13 105.747 1124.59 105.44C1124.05 105.133 1123.45 104.98 1122.79 104.98C1122.11 104.98 1121.5 105.133 1120.97 105.44C1120.43 105.747 1120.01 106.18 1119.69 106.74C1119.37 107.287 1119.21 107.94 1119.21 108.7C1119.21 109.447 1119.37 110.107 1119.69 110.68C1120.01 111.24 1120.43 111.673 1120.97 111.98C1121.5 112.287 1122.11 112.44 1122.79 112.44ZM1126.41 114V111.14L1126.53 108.68L1126.33 106.22V99.16H1128.25V114H1126.41ZM1136.42 114.12C1135.35 114.12 1134.41 113.887 1133.58 113.42C1132.75 112.953 1132.1 112.313 1131.62 111.5C1131.14 110.673 1130.9 109.74 1130.9 108.7C1130.9 107.647 1131.14 106.713 1131.62 105.9C1132.1 105.087 1132.75 104.453 1133.58 104C1134.41 103.533 1135.35 103.3 1136.42 103.3C1137.47 103.3 1138.41 103.533 1139.24 104C1140.08 104.453 1140.73 105.087 1141.2 105.9C1141.68 106.7 1141.92 107.633 1141.92 108.7C1141.92 109.753 1141.68 110.687 1141.2 111.5C1140.73 112.313 1140.08 112.953 1139.24 113.42C1138.41 113.887 1137.47 114.12 1136.42 114.12ZM1136.42 112.44C1137.1 112.44 1137.71 112.287 1138.24 111.98C1138.79 111.673 1139.21 111.24 1139.52 110.68C1139.83 110.107 1139.98 109.447 1139.98 108.7C1139.98 107.94 1139.83 107.287 1139.52 106.74C1139.21 106.18 1138.79 105.747 1138.24 105.44C1137.71 105.133 1137.1 104.98 1136.42 104.98C1135.74 104.98 1135.13 105.133 1134.6 105.44C1134.07 105.747 1133.64 106.18 1133.32 106.74C1133 107.287 1132.84 107.94 1132.84 108.7C1132.84 109.447 1133 110.107 1133.32 110.68C1133.64 111.24 1134.07 111.673 1134.6 111.98C1135.13 112.287 1135.74 112.44 1136.42 112.44ZM1155.57 114.12C1154.69 114.12 1153.88 113.92 1153.15 113.52C1152.43 113.107 1151.85 112.5 1151.41 111.7C1150.98 110.9 1150.76 109.9 1150.76 108.7C1150.76 107.5 1150.97 106.5 1151.39 105.7C1151.81 104.9 1152.39 104.3 1153.11 103.9C1153.84 103.5 1154.66 103.3 1155.57 103.3C1156.61 103.3 1157.53 103.527 1158.33 103.98C1159.13 104.433 1159.76 105.067 1160.23 105.88C1160.69 106.68 1160.93 107.62 1160.93 108.7C1160.93 109.78 1160.69 110.727 1160.23 111.54C1159.76 112.353 1159.13 112.987 1158.33 113.44C1157.53 113.893 1156.61 114.12 1155.57 114.12ZM1149.95 117.88V103.4H1151.79V106.26L1151.67 108.72L1151.87 111.18V117.88H1149.95ZM1155.41 112.44C1156.09 112.44 1156.69 112.287 1157.23 111.98C1157.77 111.673 1158.2 111.24 1158.51 110.68C1158.83 110.107 1158.99 109.447 1158.99 108.7C1158.99 107.94 1158.83 107.287 1158.51 106.74C1158.2 106.18 1157.77 105.747 1157.23 105.44C1156.69 105.133 1156.09 104.98 1155.41 104.98C1154.74 104.98 1154.13 105.133 1153.59 105.44C1153.05 105.747 1152.63 106.18 1152.31 106.74C1152 107.287 1151.85 107.94 1151.85 108.7C1151.85 109.447 1152 110.107 1152.31 110.68C1152.63 111.24 1153.05 111.673 1153.59 111.98C1154.13 112.287 1154.74 112.44 1155.41 112.44ZM1168.12 114.12C1167.05 114.12 1166.1 113.887 1165.28 113.42C1164.45 112.953 1163.8 112.313 1163.32 111.5C1162.84 110.673 1162.6 109.74 1162.6 108.7C1162.6 107.647 1162.84 106.713 1163.32 105.9C1163.8 105.087 1164.45 104.453 1165.28 104C1166.1 103.533 1167.05 103.3 1168.12 103.3C1169.17 103.3 1170.11 103.533 1170.94 104C1171.78 104.453 1172.43 105.087 1172.9 105.9C1173.38 106.7 1173.62 107.633 1173.62 108.7C1173.62 109.753 1173.38 110.687 1172.9 111.5C1172.43 112.313 1171.78 112.953 1170.94 113.42C1170.11 113.887 1169.17 114.12 1168.12 114.12ZM1168.12 112.44C1168.8 112.44 1169.4 112.287 1169.94 111.98C1170.48 111.673 1170.91 111.24 1171.22 110.68C1171.52 110.107 1171.68 109.447 1171.68 108.7C1171.68 107.94 1171.52 107.287 1171.22 106.74C1170.91 106.18 1170.48 105.747 1169.94 105.44C1169.4 105.133 1168.8 104.98 1168.12 104.98C1167.44 104.98 1166.83 105.133 1166.3 105.44C1165.76 105.747 1165.34 106.18 1165.02 106.74C1164.7 107.287 1164.54 107.94 1164.54 108.7C1164.54 109.447 1164.7 110.107 1165.02 110.68C1165.34 111.24 1165.76 111.673 1166.3 111.98C1166.83 112.287 1167.44 112.44 1168.12 112.44ZM1176.27 114V103.4H1178.11V106.28L1177.93 105.56C1178.23 104.827 1178.72 104.267 1179.41 103.88C1180.11 103.493 1180.96 103.3 1181.97 103.3V105.16C1181.89 105.147 1181.81 105.14 1181.73 105.14C1181.67 105.14 1181.6 105.14 1181.53 105.14C1180.51 105.14 1179.69 105.447 1179.09 106.06C1178.49 106.673 1178.19 107.56 1178.19 108.72V114H1176.27ZM1191.89 110.62L1191.79 108.18L1199.73 100H1202.01L1195.87 106.48L1194.75 107.72L1191.89 110.62ZM1190.13 114V100H1192.13V114H1190.13ZM1200.05 114L1194.31 107.32L1195.65 105.84L1202.39 114H1200.05ZM1210.55 114V111.76L1210.45 111.34V107.52C1210.45 106.707 1210.21 106.08 1209.73 105.64C1209.26 105.187 1208.56 104.96 1207.61 104.96C1206.98 104.96 1206.37 105.067 1205.77 105.28C1205.17 105.48 1204.66 105.753 1204.25 106.1L1203.45 104.66C1204 104.22 1204.65 103.887 1205.41 103.66C1206.18 103.42 1206.99 103.3 1207.83 103.3C1209.28 103.3 1210.4 103.653 1211.19 104.36C1211.98 105.067 1212.37 106.147 1212.37 107.6V114H1210.55ZM1207.07 114.12C1206.28 114.12 1205.59 113.987 1204.99 113.72C1204.4 113.453 1203.95 113.087 1203.63 112.62C1203.31 112.14 1203.15 111.6 1203.15 111C1203.15 110.427 1203.28 109.907 1203.55 109.44C1203.83 108.973 1204.28 108.6 1204.89 108.32C1205.52 108.04 1206.36 107.9 1207.41 107.9H1210.77V109.28H1207.49C1206.53 109.28 1205.88 109.44 1205.55 109.76C1205.22 110.08 1205.05 110.467 1205.05 110.92C1205.05 111.44 1205.26 111.86 1205.67 112.18C1206.08 112.487 1206.66 112.64 1207.39 112.64C1208.11 112.64 1208.74 112.48 1209.27 112.16C1209.82 111.84 1210.21 111.373 1210.45 110.76L1210.83 112.08C1210.58 112.707 1210.13 113.207 1209.49 113.58C1208.85 113.94 1208.04 114.12 1207.07 114.12ZM1215.92 114V103.4H1217.84V114H1215.92ZM1216.88 101.36C1216.51 101.36 1216.19 101.24 1215.94 101C1215.7 100.76 1215.58 100.467 1215.58 100.12C1215.58 99.76 1215.7 99.46 1215.94 99.22C1216.19 98.98 1216.51 98.86 1216.88 98.86C1217.25 98.86 1217.56 98.98 1217.8 99.22C1218.05 99.4467 1218.18 99.7333 1218.18 100.08C1218.18 100.44 1218.06 100.747 1217.82 101C1217.58 101.24 1217.27 101.36 1216.88 101.36ZM1226.05 114.12C1224.98 114.12 1224.03 113.887 1223.21 113.42C1222.38 112.953 1221.73 112.313 1221.25 111.5C1220.77 110.673 1220.53 109.74 1220.53 108.7C1220.53 107.647 1220.77 106.713 1221.25 105.9C1221.73 105.087 1222.38 104.453 1223.21 104C1224.03 103.533 1224.98 103.3 1226.05 103.3C1227.1 103.3 1228.04 103.533 1228.87 104C1229.71 104.453 1230.36 105.087 1230.83 105.9C1231.31 106.7 1231.55 107.633 1231.55 108.7C1231.55 109.753 1231.31 110.687 1230.83 111.5C1230.36 112.313 1229.71 112.953 1228.87 113.42C1228.04 113.887 1227.1 114.12 1226.05 114.12ZM1226.05 112.44C1226.73 112.44 1227.33 112.287 1227.87 111.98C1228.41 111.673 1228.84 111.24 1229.15 110.68C1229.45 110.107 1229.61 109.447 1229.61 108.7C1229.61 107.94 1229.45 107.287 1229.15 106.74C1228.84 106.18 1228.41 105.747 1227.87 105.44C1227.33 105.133 1226.73 104.98 1226.05 104.98C1225.37 104.98 1224.76 105.133 1224.23 105.44C1223.69 105.747 1223.27 106.18 1222.95 106.74C1222.63 107.287 1222.47 107.94 1222.47 108.7C1222.47 109.447 1222.63 110.107 1222.95 110.68C1223.27 111.24 1223.69 111.673 1224.23 111.98C1224.76 112.287 1225.37 112.44 1226.05 112.44ZM1241.65 106.62H1248.87V108.34H1241.65V106.62ZM1241.85 114H1239.85V100H1249.73V101.74H1241.85V114ZM1256.66 114.12C1255.52 114.12 1254.52 113.887 1253.66 113.42C1252.8 112.953 1252.14 112.313 1251.66 111.5C1251.19 110.687 1250.96 109.753 1250.96 108.7C1250.96 107.647 1251.18 106.713 1251.64 105.9C1252.1 105.087 1252.74 104.453 1253.54 104C1254.35 103.533 1255.26 103.3 1256.28 103.3C1257.3 103.3 1258.21 103.527 1259 103.98C1259.78 104.433 1260.4 105.073 1260.84 105.9C1261.29 106.713 1261.52 107.667 1261.52 108.76C1261.52 108.84 1261.51 108.933 1261.5 109.04C1261.5 109.147 1261.49 109.247 1261.48 109.34H1252.46V107.96H1260.48L1259.7 108.44C1259.71 107.76 1259.57 107.153 1259.28 106.62C1258.98 106.087 1258.58 105.673 1258.06 105.38C1257.55 105.073 1256.96 104.92 1256.28 104.92C1255.61 104.92 1255.02 105.073 1254.5 105.38C1253.98 105.673 1253.57 106.093 1253.28 106.64C1252.98 107.173 1252.84 107.787 1252.84 108.48V108.8C1252.84 109.507 1253 110.14 1253.32 110.7C1253.65 111.247 1254.11 111.673 1254.7 111.98C1255.28 112.287 1255.96 112.44 1256.72 112.44C1257.34 112.44 1257.91 112.333 1258.42 112.12C1258.94 111.907 1259.39 111.587 1259.78 111.16L1260.84 112.4C1260.36 112.96 1259.76 113.387 1259.04 113.68C1258.33 113.973 1257.54 114.12 1256.66 114.12ZM1264.18 114V103.4H1266.02V106.28L1265.84 105.56C1266.14 104.827 1266.63 104.267 1267.32 103.88C1268.02 103.493 1268.87 103.3 1269.88 103.3V105.16C1269.8 105.147 1269.72 105.14 1269.64 105.14C1269.58 105.14 1269.51 105.14 1269.44 105.14C1268.42 105.14 1267.6 105.447 1267 106.06C1266.4 106.673 1266.1 107.56 1266.1 108.72V114H1264.18ZM1272.25 114V103.4H1274.09V106.28L1273.91 105.56C1274.2 104.827 1274.7 104.267 1275.39 103.88C1276.08 103.493 1276.94 103.3 1277.95 103.3V105.16C1277.87 105.147 1277.79 105.14 1277.71 105.14C1277.64 105.14 1277.58 105.14 1277.51 105.14C1276.48 105.14 1275.67 105.447 1275.07 106.06C1274.47 106.673 1274.17 107.56 1274.17 108.72V114H1272.25ZM1284.94 114.12C1283.81 114.12 1282.81 113.887 1281.94 113.42C1281.09 112.953 1280.42 112.313 1279.94 111.5C1279.47 110.687 1279.24 109.753 1279.24 108.7C1279.24 107.647 1279.47 106.713 1279.92 105.9C1280.39 105.087 1281.02 104.453 1281.82 104C1282.63 103.533 1283.55 103.3 1284.56 103.3C1285.59 103.3 1286.49 103.527 1287.28 103.98C1288.07 104.433 1288.68 105.073 1289.12 105.9C1289.57 106.713 1289.8 107.667 1289.8 108.76C1289.8 108.84 1289.79 108.933 1289.78 109.04C1289.78 109.147 1289.77 109.247 1289.76 109.34H1280.74V107.96H1288.76L1287.98 108.44C1287.99 107.76 1287.85 107.153 1287.56 106.62C1287.27 106.087 1286.86 105.673 1286.34 105.38C1285.83 105.073 1285.24 104.92 1284.56 104.92C1283.89 104.92 1283.3 105.073 1282.78 105.38C1282.26 105.673 1281.85 106.093 1281.56 106.64C1281.27 107.173 1281.12 107.787 1281.12 108.48V108.8C1281.12 109.507 1281.28 110.14 1281.6 110.7C1281.93 111.247 1282.39 111.673 1282.98 111.98C1283.57 112.287 1284.24 112.44 1285 112.44C1285.63 112.44 1286.19 112.333 1286.7 112.12C1287.22 111.907 1287.67 111.587 1288.06 111.16L1289.12 112.4C1288.64 112.96 1288.04 113.387 1287.32 113.68C1286.61 113.973 1285.82 114.12 1284.94 114.12ZM1292.46 114V103.4H1294.38V114H1292.46ZM1293.42 101.36C1293.05 101.36 1292.74 101.24 1292.48 101C1292.24 100.76 1292.12 100.467 1292.12 100.12C1292.12 99.76 1292.24 99.46 1292.48 99.22C1292.74 98.98 1293.05 98.86 1293.42 98.86C1293.8 98.86 1294.1 98.98 1294.34 99.22C1294.6 99.4467 1294.72 99.7333 1294.72 100.08C1294.72 100.44 1294.6 100.747 1294.36 101C1294.12 101.24 1293.81 101.36 1293.42 101.36ZM1298.05 114V103.4H1299.89V106.28L1299.71 105.56C1300 104.827 1300.5 104.267 1301.19 103.88C1301.88 103.493 1302.74 103.3 1303.75 103.3V105.16C1303.67 105.147 1303.59 105.14 1303.51 105.14C1303.44 105.14 1303.38 105.14 1303.31 105.14C1302.28 105.14 1301.47 105.447 1300.87 106.06C1300.27 106.673 1299.97 107.56 1299.97 108.72V114H1298.05ZM1311.92 114V111.76L1311.82 111.34V107.52C1311.82 106.707 1311.58 106.08 1311.1 105.64C1310.63 105.187 1309.92 104.96 1308.98 104.96C1308.35 104.96 1307.74 105.067 1307.14 105.28C1306.54 105.48 1306.03 105.753 1305.62 106.1L1304.82 104.66C1305.36 104.22 1306.02 103.887 1306.78 103.66C1307.55 103.42 1308.36 103.3 1309.2 103.3C1310.65 103.3 1311.77 103.653 1312.56 104.36C1313.34 105.067 1313.74 106.147 1313.74 107.6V114H1311.92ZM1308.44 114.12C1307.65 114.12 1306.96 113.987 1306.36 113.72C1305.77 113.453 1305.32 113.087 1305 112.62C1304.68 112.14 1304.52 111.6 1304.52 111C1304.52 110.427 1304.65 109.907 1304.92 109.44C1305.2 108.973 1305.64 108.6 1306.26 108.32C1306.88 108.04 1307.72 107.9 1308.78 107.9H1312.14V109.28H1308.86C1307.9 109.28 1307.25 109.44 1306.92 109.76C1306.58 110.08 1306.42 110.467 1306.42 110.92C1306.42 111.44 1306.62 111.86 1307.04 112.18C1307.45 112.487 1308.02 112.64 1308.76 112.64C1309.48 112.64 1310.1 112.48 1310.64 112.16C1311.18 111.84 1311.58 111.373 1311.82 110.76L1312.2 112.08C1311.94 112.707 1311.5 113.207 1310.86 113.58C1310.22 113.94 1309.41 114.12 1308.44 114.12ZM1317.75 114.12C1317.38 114.12 1317.06 113.993 1316.79 113.74C1316.52 113.473 1316.39 113.14 1316.39 112.74C1316.39 112.34 1316.52 112.013 1316.79 111.76C1317.06 111.507 1317.38 111.38 1317.75 111.38C1318.11 111.38 1318.42 111.507 1318.67 111.76C1318.94 112.013 1319.07 112.34 1319.07 112.74C1319.07 113.14 1318.94 113.473 1318.67 113.74C1318.42 113.993 1318.11 114.12 1317.75 114.12Z" fill="white"/>
<path d="M689.008 115.46C687.263 115.46 685.701 115.076 684.313 114.298C682.934 113.521 681.843 112.456 681.049 111.093C680.254 109.731 679.853 108.185 679.853 106.465C679.853 104.745 680.254 103.173 681.049 101.836C681.843 100.5 682.925 99.4436 684.295 98.6664C685.666 97.8891 687.237 97.5049 689.008 97.5049C690.78 97.5049 692.316 97.8891 693.704 98.6489C695.083 99.4087 696.165 100.465 696.95 101.819C697.736 103.173 698.129 104.718 698.129 106.465C698.129 108.212 697.736 109.757 696.95 111.111C696.165 112.465 695.083 113.521 693.704 114.298C692.325 115.076 690.754 115.46 689.008 115.46V115.46ZM689.008 112.674C690.134 112.674 691.147 112.421 692.046 111.914C692.944 111.408 693.643 110.683 694.149 109.74C694.655 108.797 694.908 107.714 694.908 106.474C694.908 105.234 694.655 104.125 694.149 103.208C693.643 102.291 692.936 101.574 692.046 101.068C691.147 100.561 690.134 100.308 689.008 100.308C687.882 100.308 686.879 100.561 685.989 101.068C685.107 101.574 684.4 102.291 683.868 103.208C683.335 104.125 683.074 105.216 683.074 106.474C683.074 107.731 683.335 108.805 683.868 109.74C684.4 110.683 685.107 111.408 685.989 111.914C686.87 112.421 687.882 112.674 689.008 112.674Z" fill="white"/>
<path d="M703.601 115.259V97.6708H706.656V102.448L706.359 101.251C706.848 100.037 707.659 99.103 708.811 98.4655C709.963 97.828 711.377 97.5049 713.053 97.5049V100.588C712.922 100.57 712.791 100.553 712.669 100.553H712.32C710.618 100.553 709.265 101.059 708.27 102.081C707.275 103.103 706.778 104.57 706.778 106.491V115.25H703.592L703.601 115.259Z" fill="white"/>
<path d="M725.158 114.534C723.456 114.534 721.938 114.176 720.594 113.46C719.25 112.744 718.194 111.74 717.408 110.456C716.623 109.172 716.23 107.688 716.23 106.011C716.23 104.334 716.623 102.823 717.408 101.548C718.194 100.273 719.258 99.2865 720.594 98.5791C721.929 97.8717 723.448 97.5137 725.158 97.5137C726.659 97.5137 728.03 97.8193 729.269 98.4219C730.508 99.0332 731.495 99.9677 732.236 101.225C732.978 102.483 733.345 104.081 733.345 106.002C733.345 107.923 732.978 109.487 732.236 110.744C731.495 112.002 730.508 112.954 729.269 113.582C728.03 114.211 726.659 114.526 725.158 114.526V114.534ZM725.56 121.905C723.945 121.905 722.383 121.678 720.864 121.224C719.346 120.77 718.115 120.123 717.164 119.285L718.691 116.831C719.511 117.538 720.515 118.097 721.711 118.508C722.907 118.918 724.155 119.119 725.455 119.119C727.532 119.119 729.059 118.63 730.028 117.661C730.997 116.691 731.486 115.207 731.486 113.216V109.495L731.817 106.011L731.652 102.491V97.6796H734.671V112.875C734.671 115.975 733.895 118.255 732.35 119.713C730.805 121.171 728.536 121.905 725.551 121.905H725.56ZM725.525 111.748C726.694 111.748 727.733 111.504 728.641 111.015C729.548 110.526 730.264 109.853 730.779 108.989C731.302 108.124 731.556 107.129 731.556 106.002C731.556 104.876 731.294 103.88 730.779 103.015C730.264 102.151 729.548 101.487 728.641 101.007C727.733 100.535 726.694 100.291 725.525 100.291C724.355 100.291 723.308 100.527 722.392 101.007C721.475 101.478 720.751 102.151 720.236 103.015C719.721 103.88 719.459 104.876 719.459 106.002C719.459 107.129 719.721 108.124 720.236 108.989C720.76 109.853 721.475 110.526 722.392 111.015C723.308 111.504 724.355 111.748 725.525 111.748Z" fill="white"/>
<path d="M746.951 115.46C745.642 115.46 744.499 115.242 743.521 114.796C742.535 114.351 741.776 113.74 741.252 112.954C740.72 112.168 740.458 111.277 740.458 110.281C740.458 109.286 740.685 108.465 741.139 107.696C741.592 106.919 742.334 106.299 743.364 105.836C744.394 105.373 745.782 105.137 747.527 105.137H753.095V107.426H747.658C746.07 107.426 744.996 107.688 744.438 108.22C743.888 108.753 743.608 109.39 743.608 110.142C743.608 111.006 743.949 111.696 744.638 112.22C745.319 112.744 746.27 112.997 747.492 112.997C748.714 112.997 749.735 112.735 750.625 112.202C751.524 111.67 752.17 110.901 752.563 109.88L753.191 112.072C752.772 113.111 752.031 113.932 750.966 114.543C749.901 115.154 748.566 115.451 746.951 115.451V115.46ZM752.72 115.259V111.539L752.554 110.84V104.5C752.554 103.155 752.162 102.107 751.376 101.365C750.591 100.623 749.412 100.256 747.841 100.256C746.803 100.256 745.782 100.43 744.787 100.771C743.792 101.112 742.954 101.574 742.264 102.151L740.938 99.7579C741.845 99.0244 742.936 98.4655 744.202 98.0812C745.476 97.697 746.803 97.4961 748.199 97.4961C750.608 97.4961 752.467 98.0812 753.767 99.2514C755.068 100.422 755.722 102.221 755.722 104.631V115.25H752.703L752.72 115.259Z" fill="white"/>
<path d="M772.087 97.5049C773.527 97.5049 774.792 97.7843 775.883 98.3345C776.974 98.8847 777.838 99.7318 778.449 100.858C779.06 101.985 779.374 103.417 779.374 105.138V115.259H776.189V105.504C776.189 103.801 775.779 102.518 774.949 101.653C774.12 100.788 772.951 100.361 771.45 100.361C770.324 100.361 769.338 100.579 768.5 101.024C767.662 101.47 767.016 102.116 766.562 102.98C766.108 103.845 765.881 104.919 765.881 106.203V115.259H762.696V97.6708H765.75V102.413L765.253 101.155C765.829 100.003 766.711 99.1118 767.906 98.4655C769.102 97.828 770.49 97.5049 772.087 97.5049V97.5049Z" fill="white"/>
<path d="M793.88 115.46C792.134 115.46 790.572 115.076 789.184 114.298C787.805 113.521 786.714 112.456 785.92 111.093C785.126 109.731 784.724 108.185 784.724 106.465C784.724 104.745 785.126 103.173 785.92 101.836C786.714 100.5 787.796 99.4436 789.167 98.6664C790.537 97.8891 792.108 97.5049 793.88 97.5049C795.651 97.5049 797.187 97.8891 798.575 98.6489C799.963 99.4087 801.036 100.465 801.822 101.819C802.607 103.173 803 104.718 803 106.465C803 108.212 802.607 109.757 801.822 111.111C801.036 112.465 799.954 113.521 798.575 114.298C797.196 115.076 795.625 115.46 793.88 115.46ZM793.88 112.674C795.006 112.674 796.018 112.421 796.917 111.914C797.816 111.408 798.514 110.683 799.02 109.74C799.526 108.797 799.78 107.714 799.78 106.474C799.78 105.234 799.526 104.125 799.02 103.208C798.514 102.291 797.807 101.574 796.917 101.068C796.018 100.561 795.014 100.308 793.88 100.308C792.745 100.308 791.741 100.561 790.86 101.068C789.978 101.574 789.271 102.291 788.739 103.208C788.207 104.125 787.945 105.216 787.945 106.474C787.945 107.731 788.207 108.805 788.739 109.74C789.271 110.683 789.978 111.408 790.86 111.914C791.741 112.421 792.754 112.674 793.88 112.674Z" fill="white"/>
<path d="M642.307 87.2262C642.525 87.6629 642.97 87.9423 643.459 87.9423C643.947 87.9423 644.393 87.6629 644.611 87.2262L649.795 76.8689C649.996 76.4671 649.97 75.9956 649.734 75.6113C649.498 75.2271 649.079 75 648.634 75H638.292C637.847 75 637.428 75.2358 637.192 75.6113C636.957 75.9956 636.939 76.4671 637.131 76.8689L642.307 87.2262ZM646.548 77.585L643.467 83.7592L640.387 77.585H646.548V77.585ZM643.467 112.971C645.187 112.971 646.828 112.29 648.041 111.076C649.254 109.862 649.935 108.212 649.935 106.5C649.935 104.788 649.254 103.138 648.041 101.924C646.828 100.71 645.178 100.029 643.467 100.029C641.757 100.029 640.107 100.71 638.894 101.924C637.681 103.138 637 104.788 637 106.5C637 108.212 637.681 109.862 638.894 111.076C640.107 112.29 641.748 112.971 643.467 112.971V112.971ZM643.467 102.614C644.497 102.614 645.484 103.024 646.217 103.749C646.941 104.474 647.351 105.47 647.351 106.5C647.351 107.53 646.941 108.517 646.217 109.251C645.492 109.976 644.497 110.386 643.467 110.386C642.438 110.386 641.451 109.976 640.718 109.251C639.994 108.526 639.584 107.53 639.584 106.5C639.584 105.47 639.994 104.483 640.718 103.749C641.443 103.024 642.438 102.614 643.467 102.614ZM638.292 138H648.643C649.359 138 649.935 137.424 649.935 136.708V126.35C649.935 125.634 649.359 125.058 648.643 125.058H638.292C637.576 125.058 637 125.634 637 126.35V136.708C637 137.424 637.576 138 638.292 138V138ZM639.584 127.643H647.351V135.415H639.584V127.643V127.643ZM660.286 130.236V107.792H652.954C652.239 107.792 651.663 107.216 651.663 106.5C651.663 105.784 652.239 105.208 652.954 105.208H660.286V82.7637H652.954C652.239 82.7637 651.663 82.1873 651.663 81.4712C651.663 80.7551 652.239 80.1787 652.954 80.1787H661.577C662.293 80.1787 662.869 80.7551 662.869 81.4712V105.208H670.2C670.916 105.208 671.492 105.784 671.492 106.5C671.492 107.216 670.916 107.792 670.2 107.792H662.869V131.529C662.869 132.245 662.293 132.821 661.577 132.821H652.954C652.239 132.821 651.663 132.245 651.663 131.529C651.663 130.813 652.239 130.236 652.954 130.236H660.286V130.236Z" fill="white"/>
<circle cx="932.5" cy="69.5" r="43.5" stroke="white" stroke-width="2"/>
<path d="M436.812 107.642L526.319 83.6586L502.336 173.166L436.812 107.642Z" stroke="#95FFD4" stroke-width="2"/>
<path d="M36.7609 173.5L74 109L111.239 173.5H36.7609Z" stroke="#95FFD4" stroke-width="2"/>
<circle cx="1400.5" cy="177.5" r="54.5" stroke="#95FFD4" stroke-width="2"/>
</svg>
